<svg width="91" height="90" viewBox="0 0 91 90" fill="none" xmlns="http://www.w3.org/2000/svg">
<circle cx="45.1448" cy="45.1361" r="40.205" fill="#FFBE15" stroke="#DFAA22"/>
<path d="M45.9039 82.1842L44.801 45.467L19.434 71.7225C28.6147 79.5935 34.4399 81.7872 45.9039 82.1842Z" fill="#FCCB4F" stroke="#DFAA22"/>
<circle cx="36.8266" cy="66.5648" r="3.30935" transform="rotate(178.279 36.8266 66.5648)" fill="#D95B33"/>
<circle cx="40.5178" cy="57.1836" r="3.30935" transform="rotate(178.279 40.5178 57.1836)" fill="#D95B33"/>
<circle cx="41.7557" cy="76.3493" r="3.30935" transform="rotate(178.279 41.7557 76.3493)" fill="#D95B33"/>
<ellipse cx="27.6937" cy="71.1433" rx="3.30935" ry="2.97841" transform="rotate(178.279 27.6937 71.1433)" fill="#D95B33"/>
<path d="M18.9711 71.8493L44.2466 45.1937L7.74204 45.6957C8.62634 57.7562 11.1747 63.4353 18.9711 71.8493Z" fill="#FCCB4F" stroke="#DFAA22"/>
<circle cx="23.6574" cy="54.4022" r="3.30935" transform="rotate(-136.522 23.6574 54.4022)" fill="#D95B33"/>
<circle cx="32.9149" cy="50.4107" r="3.30935" transform="rotate(-136.522 32.9149 50.4107)" fill="#D95B33"/>
<circle cx="20.1882" cy="64.7943" r="3.30935" transform="rotate(-136.522 20.1882 64.7943)" fill="#D95B33"/>
<ellipse cx="13.9733" cy="51.1482" rx="3.30935" ry="2.97841" transform="rotate(-136.522 13.9733 51.1482)" fill="#D95B33"/>
<path d="M7.74915 44.9669L44.4828 45.0484L19.0589 18.8481C10.8959 27.7701 8.51561 33.5217 7.74915 44.9669Z" fill="#FCCB4F" stroke="#DFAA22"/>
<circle cx="23.6531" cy="36.3978" r="3.30935" transform="rotate(-89.8729 23.6531 36.3978)" fill="#D95B33"/>
<circle cx="32.9104" cy="40.3896" r="3.30935" transform="rotate(-89.8729 32.9104 40.3896)" fill="#D95B33"/>
<circle cx="13.7148" cy="41.0089" r="3.30935" transform="rotate(-89.8729 13.7148 41.0089)" fill="#D95B33"/>
<ellipse cx="19.3715" cy="27.1221" rx="3.30935" ry="2.97841" transform="rotate(-89.8729 19.3715 27.1221)" fill="#D95B33"/>
<path d="M18.9471 18.3813L44.7739 44.503L45.4491 8.00125C33.3664 8.49624 27.6081 10.8602 18.9471 18.3813Z" fill="#FCCB4F" stroke="#DFAA22"/>
<circle cx="36.234" cy="23.6276" r="3.30935" transform="rotate(-44.6748 36.234 23.6276)" fill="#D95B33"/>
<circle cx="39.9249" cy="33.009" r="3.30935" transform="rotate(-44.6748 39.9249 33.009)" fill="#D95B33"/>
<circle cx="25.9592" cy="19.8251" r="3.30935" transform="rotate(-44.6748 25.9592 19.8251)" fill="#D95B33"/>
<ellipse cx="39.7985" cy="14.0534" rx="3.30935" ry="2.97841" transform="rotate(-44.6748 39.7985 14.0534)" fill="#D95B33"/>
<path d="M44.8823 7.86272L45.0402 44.5962L71.0743 19.002C62.0992 10.8974 56.3323 8.5546 44.8823 7.86272Z" fill="#FCCB4F" stroke="#DFAA22"/>
<circle cx="53.5548" cy="23.7105" r="3.30935" transform="rotate(-0.246259 53.5548 23.7105)" fill="#D95B33"/>
<circle cx="49.6234" cy="32.9936" r="3.30935" transform="rotate(-0.246259 49.6234 32.9936)" fill="#D95B33"/>
<circle cx="48.8791" cy="13.8024" r="3.30935" transform="rotate(-0.246259 48.8791 13.8024)" fill="#D95B33"/>
<ellipse cx="62.8024" cy="19.3685" rx="3.30935" ry="2.97841" transform="rotate(-0.246259 62.8024 19.3685)" fill="#D95B33"/>
<path d="M71.5403 18.8872L45.5874 44.8837L82.0928 45.321C81.5191 33.2418 79.1177 27.499 71.5403 18.8872Z" fill="#FCCB4F" stroke="#DFAA22"/>
<circle cx="66.4067" cy="36.208" r="3.30935" transform="rotate(44.9519 66.4067 36.208)" fill="#D95B33"/>
<circle cx="57.0496" cy="39.9599" r="3.30935" transform="rotate(44.9519 57.0496 39.9599)" fill="#D95B33"/>
<circle cx="70.1422" cy="25.9085" r="3.30935" transform="rotate(44.9519 70.1422 25.9085)" fill="#D95B33"/>
<ellipse cx="76.0039" cy="39.71" rx="3.30935" ry="2.97841" transform="rotate(44.9519 76.0039 39.71)" fill="#D95B33"/>
<path d="M82.0669 46.0494L45.3475 45.0229L70.0889 71.8686C78.4788 63.1595 81.0062 57.4711 82.0669 46.0494Z" fill="#FCCB4F" stroke="#DFAA22"/>
<circle cx="65.9478" cy="54.2064" r="3.30935" transform="rotate(91.6014 65.9478 54.2064)" fill="#D95B33"/>
<circle cx="56.7962" cy="49.9778" r="3.30935" transform="rotate(91.6014 56.7962 49.9778)" fill="#D95B33"/>
<circle cx="76.0015" cy="49.8526" r="3.30935" transform="rotate(91.6014 76.0015 49.8526)" fill="#D95B33"/>
<ellipse cx="69.9893" cy="63.5892" rx="3.30935" ry="2.97841" transform="rotate(91.6014 69.9893 63.5892)" fill="#D95B33"/>
<path d="M70.1887 72.3381L45.0425 45.5606L45.4757 82.2008C57.5672 82.0168 61.337 79.6339 70.1887 72.3381Z" fill="#FCCB4F" stroke="#DFAA22"/>
<circle cx="53.0424" cy="66.6487" r="3.30935" transform="rotate(136.8 53.0424 66.6487)" fill="#D95B33"/>
<circle cx="49.5941" cy="57.1755" r="3.30935" transform="rotate(136.8 49.5941 57.1755)" fill="#D95B33"/>
<circle cx="63.2161" cy="70.7143" r="3.30935" transform="rotate(136.8 63.2161 70.7143)" fill="#D95B33"/>
<ellipse cx="49.2328" cy="76.128" rx="3.30935" ry="2.97841" transform="rotate(136.8 49.2328 76.128)" fill="#D95B33"/>
</svg>
